<mxfile host="Electron" modified="2023-05-22T13:28:39.980Z" agent="Mozilla/5.0 (Macintosh; Intel Mac OS X 10_15_7) AppleWebKit/537.36 (KHTML, like Gecko) draw.io/21.2.8 Chrome/112.0.5615.165 Electron/24.2.0 Safari/537.36" etag="pVxYlFzCKtbDb5F9QBgt" version="21.2.8" type="device">
  <diagram name="페이지-1" id="xrRFBCfU1CyiS_3OgIig">
    <mxGraphModel dx="954" dy="674" grid="1" gridSize="10" guides="1" tooltips="1" connect="1" arrows="1" fold="1" page="1" pageScale="1" pageWidth="827" pageHeight="1169" math="0" shadow="0">
      <root>
        <mxCell id="0" />
        <mxCell id="1" parent="0" />
        <mxCell id="B5-nmQ8yVb-cAeDa73AD-4" value="상품 목록" style="rounded=0;whiteSpace=wrap;html=1;" parent="1" vertex="1">
          <mxGeometry x="250" y="174" width="110" height="50" as="geometry" />
        </mxCell>
        <mxCell id="B5-nmQ8yVb-cAeDa73AD-1" value="" style="shape=actor;whiteSpace=wrap;html=1;" parent="1" vertex="1">
          <mxGeometry x="70" y="280" width="40" height="60" as="geometry" />
        </mxCell>
        <mxCell id="B5-nmQ8yVb-cAeDa73AD-2" value="" style="endArrow=classic;html=1;rounded=0;entryX=0;entryY=0.5;entryDx=0;entryDy=0;" parent="1" edge="1" target="B5-nmQ8yVb-cAeDa73AD-3">
          <mxGeometry width="50" height="50" relative="1" as="geometry">
            <mxPoint x="120" y="310" as="sourcePoint" />
            <mxPoint x="190" y="310.05" as="targetPoint" />
          </mxGeometry>
        </mxCell>
        <mxCell id="B5-nmQ8yVb-cAeDa73AD-3" value="&lt;font color=&quot;#ffffff&quot;&gt;상품 목록&lt;/font&gt;" style="rounded=1;whiteSpace=wrap;html=1;fillColor=#000000;" parent="1" vertex="1">
          <mxGeometry x="200" y="184" width="60" height="30" as="geometry" />
        </mxCell>
        <mxCell id="B5-nmQ8yVb-cAeDa73AD-8" value="상품 등록 폼" style="rounded=0;whiteSpace=wrap;html=1;" parent="1" vertex="1">
          <mxGeometry x="450" y="89" width="110" height="50" as="geometry" />
        </mxCell>
        <mxCell id="B5-nmQ8yVb-cAeDa73AD-9" value="&lt;font color=&quot;#ffffff&quot;&gt;상품 등록 폼&lt;/font&gt;" style="rounded=1;whiteSpace=wrap;html=1;fillColor=#000000;" parent="1" vertex="1">
          <mxGeometry x="400" y="99" width="70" height="30" as="geometry" />
        </mxCell>
        <mxCell id="B5-nmQ8yVb-cAeDa73AD-10" value="상품 상세" style="rounded=0;whiteSpace=wrap;html=1;" parent="1" vertex="1">
          <mxGeometry x="450" y="184" width="110" height="50" as="geometry" />
        </mxCell>
        <mxCell id="B5-nmQ8yVb-cAeDa73AD-11" value="&lt;font color=&quot;#ffffff&quot;&gt;상품 상세&lt;/font&gt;" style="rounded=1;whiteSpace=wrap;html=1;fillColor=#000000;" parent="1" vertex="1">
          <mxGeometry x="400" y="194" width="60" height="30" as="geometry" />
        </mxCell>
        <mxCell id="B5-nmQ8yVb-cAeDa73AD-12" value="상품 수정 폼" style="rounded=0;whiteSpace=wrap;html=1;" parent="1" vertex="1">
          <mxGeometry x="450" y="269" width="110" height="50" as="geometry" />
        </mxCell>
        <mxCell id="B5-nmQ8yVb-cAeDa73AD-13" value="&lt;font color=&quot;#ffffff&quot;&gt;상품 수정 폼&lt;/font&gt;" style="rounded=1;whiteSpace=wrap;html=1;fillColor=#000000;" parent="1" vertex="1">
          <mxGeometry x="400" y="279" width="70" height="30" as="geometry" />
        </mxCell>
        <mxCell id="B5-nmQ8yVb-cAeDa73AD-14" value="" style="endArrow=classic;html=1;entryX=0;entryY=0.5;entryDx=0;entryDy=0;exitX=0.5;exitY=0;exitDx=0;exitDy=0;curved=1;" parent="1" source="B5-nmQ8yVb-cAeDa73AD-4" target="B5-nmQ8yVb-cAeDa73AD-9" edge="1">
          <mxGeometry width="50" height="50" relative="1" as="geometry">
            <mxPoint x="310" y="169" as="sourcePoint" />
            <mxPoint x="350" y="129" as="targetPoint" />
            <Array as="points">
              <mxPoint x="330" y="109" />
            </Array>
          </mxGeometry>
        </mxCell>
        <mxCell id="B5-nmQ8yVb-cAeDa73AD-15" value="" style="endArrow=classic;html=1;rounded=0;entryX=0;entryY=0.25;entryDx=0;entryDy=0;" parent="1" target="B5-nmQ8yVb-cAeDa73AD-11" edge="1">
          <mxGeometry width="50" height="50" relative="1" as="geometry">
            <mxPoint x="360" y="199" as="sourcePoint" />
            <mxPoint x="410" y="149" as="targetPoint" />
          </mxGeometry>
        </mxCell>
        <mxCell id="B5-nmQ8yVb-cAeDa73AD-16" value="" style="endArrow=classic;html=1;rounded=0;" parent="1" edge="1">
          <mxGeometry width="50" height="50" relative="1" as="geometry">
            <mxPoint x="560" y="113.5" as="sourcePoint" />
            <mxPoint x="610" y="114" as="targetPoint" />
          </mxGeometry>
        </mxCell>
        <mxCell id="B5-nmQ8yVb-cAeDa73AD-17" value="&lt;font color=&quot;#ffffff&quot;&gt;상품 저장&lt;/font&gt;" style="rounded=1;whiteSpace=wrap;html=1;fillColor=#000000;" parent="1" vertex="1">
          <mxGeometry x="610" y="99" width="80" height="35" as="geometry" />
        </mxCell>
        <mxCell id="B5-nmQ8yVb-cAeDa73AD-18" value="" style="endArrow=classic;html=1;entryX=1;entryY=0.5;entryDx=0;entryDy=0;curved=1;dashed=1;" parent="1" target="B5-nmQ8yVb-cAeDa73AD-10" edge="1">
          <mxGeometry relative="1" as="geometry">
            <mxPoint x="649.5" y="134" as="sourcePoint" />
            <mxPoint x="649.5" y="234" as="targetPoint" />
            <Array as="points">
              <mxPoint x="680" y="229" />
            </Array>
          </mxGeometry>
        </mxCell>
        <mxCell id="B5-nmQ8yVb-cAeDa73AD-19" value="내부 호출" style="edgeLabel;resizable=0;html=1;align=center;verticalAlign=middle;container=1;" parent="B5-nmQ8yVb-cAeDa73AD-18" connectable="0" vertex="1">
          <mxGeometry relative="1" as="geometry">
            <mxPoint x="-59" y="-33" as="offset" />
          </mxGeometry>
        </mxCell>
        <mxCell id="B5-nmQ8yVb-cAeDa73AD-20" value="" style="endArrow=classic;html=1;rounded=0;entryX=0.25;entryY=0;entryDx=0;entryDy=0;" parent="1" target="B5-nmQ8yVb-cAeDa73AD-13" edge="1">
          <mxGeometry width="50" height="50" relative="1" as="geometry">
            <mxPoint x="470" y="234" as="sourcePoint" />
            <mxPoint x="430" y="274" as="targetPoint" />
          </mxGeometry>
        </mxCell>
        <mxCell id="B5-nmQ8yVb-cAeDa73AD-23" value="" style="endArrow=classic;html=1;rounded=0;" parent="1" edge="1">
          <mxGeometry width="50" height="50" relative="1" as="geometry">
            <mxPoint x="560" y="293.5" as="sourcePoint" />
            <mxPoint x="610" y="294" as="targetPoint" />
          </mxGeometry>
        </mxCell>
        <mxCell id="B5-nmQ8yVb-cAeDa73AD-24" value="&lt;font color=&quot;#ffffff&quot;&gt;상품 수정&lt;/font&gt;" style="rounded=1;whiteSpace=wrap;html=1;fillColor=#000000;" parent="1" vertex="1">
          <mxGeometry x="610" y="279" width="80" height="35" as="geometry" />
        </mxCell>
        <mxCell id="B5-nmQ8yVb-cAeDa73AD-25" value="" style="endArrow=none;html=1;rounded=0;" parent="1" edge="1">
          <mxGeometry width="50" height="50" relative="1" as="geometry">
            <mxPoint x="650" y="369" as="sourcePoint" />
            <mxPoint x="650" y="314" as="targetPoint" />
          </mxGeometry>
        </mxCell>
        <mxCell id="B5-nmQ8yVb-cAeDa73AD-26" value="" style="endArrow=none;html=1;rounded=0;" parent="1" edge="1">
          <mxGeometry width="50" height="50" relative="1" as="geometry">
            <mxPoint x="370" y="369" as="sourcePoint" />
            <mxPoint x="650" y="369" as="targetPoint" />
          </mxGeometry>
        </mxCell>
        <mxCell id="B5-nmQ8yVb-cAeDa73AD-28" value="" style="endArrow=none;html=1;rounded=0;" parent="1" edge="1">
          <mxGeometry width="50" height="50" relative="1" as="geometry">
            <mxPoint x="370" y="369" as="sourcePoint" />
            <mxPoint x="370" y="219" as="targetPoint" />
          </mxGeometry>
        </mxCell>
        <mxCell id="B5-nmQ8yVb-cAeDa73AD-29" value="" style="endArrow=classic;html=1;rounded=0;entryX=0;entryY=0.833;entryDx=0;entryDy=0;entryPerimeter=0;" parent="1" target="B5-nmQ8yVb-cAeDa73AD-11" edge="1">
          <mxGeometry width="50" height="50" relative="1" as="geometry">
            <mxPoint x="370" y="219" as="sourcePoint" />
            <mxPoint x="390" y="219" as="targetPoint" />
          </mxGeometry>
        </mxCell>
        <mxCell id="B5-nmQ8yVb-cAeDa73AD-30" value="&lt;font color=&quot;#a8a8a8&quot;&gt;Redirect&lt;/font&gt;" style="text;html=1;align=center;verticalAlign=middle;resizable=0;points=[];autosize=1;strokeColor=none;fillColor=none;" parent="1" vertex="1">
          <mxGeometry x="580" y="339" width="70" height="30" as="geometry" />
        </mxCell>
        <mxCell id="B5-nmQ8yVb-cAeDa73AD-31" value="클라이언트" style="text;html=1;align=center;verticalAlign=middle;resizable=0;points=[];autosize=1;strokeColor=none;fillColor=none;" parent="1" vertex="1">
          <mxGeometry x="50" y="340" width="80" height="30" as="geometry" />
        </mxCell>
        <mxCell id="B5-nmQ8yVb-cAeDa73AD-32" value="&lt;font color=&quot;#ffffff&quot;&gt;컨트롤러&lt;/font&gt;" style="rounded=1;whiteSpace=wrap;html=1;fillColor=#000000;" parent="1" vertex="1">
          <mxGeometry x="40" y="450" width="60" height="30" as="geometry" />
        </mxCell>
        <mxCell id="B5-nmQ8yVb-cAeDa73AD-33" value="뷰" style="rounded=0;whiteSpace=wrap;html=1;" parent="1" vertex="1">
          <mxGeometry x="110" y="442.5" width="80" height="45" as="geometry" />
        </mxCell>
        <mxCell id="4AFti8EpyJshZGSnEAy4-1" value="영상 목록" style="rounded=0;whiteSpace=wrap;html=1;" vertex="1" parent="1">
          <mxGeometry x="250" y="400" width="110" height="50" as="geometry" />
        </mxCell>
        <mxCell id="4AFti8EpyJshZGSnEAy4-2" value="" style="endArrow=classic;html=1;rounded=0;exitX=0.988;exitY=0.7;exitDx=0;exitDy=0;exitPerimeter=0;" edge="1" parent="1" source="B5-nmQ8yVb-cAeDa73AD-31">
          <mxGeometry width="50" height="50" relative="1" as="geometry">
            <mxPoint x="130" y="425" as="sourcePoint" />
            <mxPoint x="200" y="425.05" as="targetPoint" />
          </mxGeometry>
        </mxCell>
        <mxCell id="4AFti8EpyJshZGSnEAy4-3" value="&lt;font color=&quot;#ffffff&quot;&gt;영상 목록&lt;/font&gt;" style="rounded=1;whiteSpace=wrap;html=1;fillColor=#000000;" vertex="1" parent="1">
          <mxGeometry x="200" y="410" width="60" height="30" as="geometry" />
        </mxCell>
        <mxCell id="4AFti8EpyJshZGSnEAy4-4" value="영상&amp;nbsp;상세" style="rounded=0;whiteSpace=wrap;html=1;" vertex="1" parent="1">
          <mxGeometry x="450" y="400" width="110" height="50" as="geometry" />
        </mxCell>
        <mxCell id="4AFti8EpyJshZGSnEAy4-5" value="&lt;font color=&quot;#ffffff&quot;&gt;영상 상세&lt;/font&gt;" style="rounded=1;whiteSpace=wrap;html=1;fillColor=#000000;" vertex="1" parent="1">
          <mxGeometry x="400" y="410" width="60" height="30" as="geometry" />
        </mxCell>
        <mxCell id="4AFti8EpyJshZGSnEAy4-6" value="" style="endArrow=classic;html=1;rounded=0;entryX=0;entryY=0.5;entryDx=0;entryDy=0;exitX=1;exitY=0.5;exitDx=0;exitDy=0;" edge="1" parent="1" source="4AFti8EpyJshZGSnEAy4-1" target="4AFti8EpyJshZGSnEAy4-5">
          <mxGeometry width="50" height="50" relative="1" as="geometry">
            <mxPoint x="360" y="425" as="sourcePoint" />
            <mxPoint x="410" y="375" as="targetPoint" />
          </mxGeometry>
        </mxCell>
      </root>
    </mxGraphModel>
  </diagram>
</mxfile>
